<svg  viewBox="0 0 22 29" fill="white" xmlns="http://www.w3.org/2000/svg">
<g id="Group">
<path id="Vector" d="M11.2269 15.8785C11.2529 15.8785 11.2789 15.8785 11.3101 15.8785C11.3205 15.8785 11.331 15.8785 11.3414 15.8785C11.357 15.8785 11.3778 15.8785 11.3934 15.8785C12.9177 15.8499 14.1507 15.2599 15.0611 14.1314C17.0641 11.6453 16.7311 7.38338 16.6947 6.97666C16.5647 3.92344 15.2536 2.4627 14.1715 1.78103C13.3651 1.2712 12.4235 0.996241 11.3726 0.973328H11.3362C11.331 0.973328 11.3205 0.973328 11.3153 0.973328H11.2841C10.7067 0.973328 9.57251 1.07644 8.48519 1.75811C7.39266 2.43979 6.06082 3.90053 5.93076 6.97666C5.89434 7.38338 5.56138 11.6453 7.56434 14.1314C8.46958 15.2599 9.70257 15.8499 11.2269 15.8785ZM7.31983 7.11987C7.31983 7.10268 7.32503 7.0855 7.32503 7.07404C7.49671 2.9668 10.1448 2.52572 11.2789 2.52572H11.2997C11.3101 2.52572 11.3258 2.52572 11.3414 2.52572C12.746 2.56009 15.134 3.19021 15.2953 7.07404C15.2953 7.09123 15.2953 7.10841 15.3005 7.11987C15.3057 7.15997 15.6698 11.0553 14.0154 13.106C13.3599 13.9194 12.4859 14.3204 11.3362 14.3319C11.3258 14.3319 11.3205 14.3319 11.3101 14.3319C11.2997 14.3319 11.2945 14.3319 11.2841 14.3319C10.1396 14.3204 9.26036 13.9194 8.61005 13.106C6.96085 11.0667 7.31462 7.15424 7.31983 7.11987Z" />
<path id="Vector_2" d="M22.001 22.9474C22.001 22.9416 22.001 22.9359 22.001 22.9302C22.001 22.8843 21.9958 22.8385 21.9958 22.787C21.9646 21.6527 21.8969 19.0005 19.639 18.1527C19.6234 18.147 19.6026 18.1413 19.587 18.1355C17.2407 17.4768 15.2897 15.9874 15.2689 15.9702C14.9516 15.7239 14.5146 15.8098 14.2908 16.1592C14.0671 16.5087 14.1452 16.9899 14.4625 17.2362C14.551 17.3049 16.6216 18.8917 19.2124 19.6249C20.4246 20.1004 20.5599 21.5267 20.5963 22.8328C20.5963 22.8843 20.5963 22.9302 20.6015 22.976C20.6067 23.4916 20.5755 24.2878 20.4923 24.7461C19.6494 25.2731 16.3458 27.0947 11.3202 27.0947C6.31538 27.0947 2.99097 25.2673 2.14296 24.7403C2.05972 24.2821 2.0233 23.4858 2.03371 22.9703C2.03371 22.9244 2.03891 22.8786 2.03891 22.8271C2.07533 21.521 2.21059 20.0946 3.42278 19.6192C6.01364 18.8859 8.08424 17.2935 8.17268 17.2304C8.49004 16.9841 8.56807 16.5029 8.34437 16.1535C8.12066 15.8041 7.68365 15.7182 7.36629 15.9645C7.34548 15.9817 5.40494 17.471 3.0482 18.1298C3.02739 18.1355 3.01178 18.1413 2.99617 18.147C0.738279 19.0005 0.670646 21.6527 0.639431 22.7812C0.639431 22.8328 0.639431 22.8786 0.634228 22.9244C0.634228 22.9302 0.634228 22.9359 0.634228 22.9416C0.629026 23.2395 0.623824 24.769 0.899557 25.5366C0.951582 25.6855 1.04523 25.8115 1.17009 25.8975C1.32616 26.012 5.06678 28.6356 11.3254 28.6356C17.584 28.6356 21.3247 26.0063 21.4807 25.8975C21.6004 25.8115 21.6992 25.6855 21.7513 25.5366C22.0114 24.7747 22.0062 23.2452 22.001 22.9474Z" />
</g>
</svg>
